#!OML:ASF E:\Mandelcareful walks\Project 1\Capture day 1\Session 1\Subject1.ASF
:FULLY-SPECIFIED
:DEGREES
1222
root -25.099 16.6517 1.69696 443.36 -94.7174 639.73
lowerback -0.313787 -2.06803 -6.40742
upperback 3.55323 -2.67049 0.406368
thorax 4.17791 -1.57412 3.89616
lowerneck -12.7638 -15.5013 -18.4819
upperneck 20.1463 -20.0561 9.12036
head 11.463 -9.7588 2.97782
rclavicle -4.44781e-014 2.0276e-014
rhumerus -33.0263 -0.931981 -82.1903
rradius 29.7251
rwrist -12.6001
rhand -9.59377 -27.6063
rfingers 7.12502
rthumb 16.3748 -56.9351
lclavicle -4.44781e-014 2.0276e-014
lhumerus -33.1175 6.31142 86.9153
lradius 27.2123
lwrist 11.5902
lhand -24.3054 -14.8785
lfingers 7.12502
lthumb 2.18246 15.0901
rfemur -19.6264 -7.86606 13.2112
rtibia 26.6962
rfoot -8.78305 -16.5402
rtoes 12.0992
lfemur 7.33534 2.14434 -22.9737
ltibia 21.1743
lfoot -20.3186 12.4233
ltoes -2.92047
1223
root -25.2402 16.667 1.59354 445.245 -94.4933 638.02
lowerback -0.682618 -2.0565 -6.2469
upperback 3.35721 -2.63677 0.564894
thorax 4.17735 -1.54669 3.96413
lowerneck -12.532 -15.627 -18.6917
upperneck 20.3719 -20.3898 9.49122
head 11.6259 -9.89871 3.07378
rclavicle -2.68359e-015 -2.66371e-014
rhumerus -32.9515 -0.87546 -82.1231
rradius 29.5132
rwrist -12.44
rhand -9.33735 -27.3264
rfingers 7.12502
rthumb 16.6217 -56.6346
lclavicle -2.68359e-015 -2.66371e-014
lhumerus -33.7126 7.69025 86.3416
lradius 26.5442
lwrist 10.069
lhand -23.4859 -14.1301
lfingers 7.12502
lthumb 2.97383 15.8289
rfemur -19.2928 -7.65718 13.7253
rtibia 26.8658
rfoot -9.56182 -16.6875
rtoes 12.8623
lfemur 6.7636 2.77647 -22.075
ltibia 22.7522
lfoot -19.4454 11.6971
ltoes -4.37974
1224
root -25.3859 16.6826 1.472 444.629 -93.8777 638.446
lowerback -0.784048 -1.96285 -5.86549
upperback 3.33896 -2.5227 0.816669
thorax 4.19469 -1.48147 4.01569
lowerneck -12.3263 -15.8515 -18.7492
upperneck 20.5227 -20.8675 9.79632
head 11.7637 -10.0967 3.09454
rclavicle -2.6339e-015 1.98785e-015
rhumerus -32.7788 -0.790655 -82.1833
rradius 29.4303
rwrist -12.3825
rhand -9.41214 -27.3697
rfingers 7.12502
rthumb 16.5497 -56.684
lclavicle -2.6339e-015 1.98785e-015
lhumerus -34.2028 8.38026 85.871
lradius 26.038
lwrist 9.1761
lhand -22.2406 -12.712
lfingers 7.12502
lthumb 4.17641 17.2268
rfemur -18.447 -6.4464 14.7275
rtibia 26.8102
rfoot -10.5507 -17.6831
rtoes 13.0579
lfemur 6.30588 3.52786 -20.5535
ltibia 24.7357
lfoot -18.473 10.8376
ltoes -5.85124
1225
root -25.5147 16.6969 1.37331 451.16 -94.1836 631.915
lowerback -0.913411 -2.01357 -6.05893
upperback 3.22521 -2.57366 0.737952
thorax 4.16139 -1.50651 4.03727
lowerneck -11.8685 -16.0354 -18.8703
upperneck 20.367 -21.3065 10.2051
head 11.7557 -10.2845 3.19092
rclavicle 1.91827e-014 5.96354e-015
rhumerus -32.7253 -0.486232 -82.3234
rradius 29.7732
rwrist -12.595
rhand -9.76547 -28.1369
rfingers 7.12502
rthumb 16.2095 -57.4792
lclavicle 1.91827e-014 5.96354e-015
lhumerus -34.5946 8.72334 85.4891
lradius 25.5719
lwrist 8.6538
lhand -21.1215 -11.9819
lfingers 7.12502
lthumb 5.25699 17.9329
rfemur -17.7145 -7.0759 14.6758
rtibia 26.5301
rfoot -11.0117 -17.43
rtoes 12.8133
lfemur 5.37215 3.88837 -20.2027
ltibia 26.9686
lfoot -17.4087 10.0444
ltoes -7.15834
1226
root -25.6481 16.7051 1.26755 454.953 -93.7076 627.957
lowerback -1.02275 -1.98627 -5.52507
upperback 3.21441 -2.55014 0.880005
thorax 4.18826 -1.48 3.88335
lowerneck -11.4216 -16.1317 -18.9162
upperneck 20.2115 -21.6062 10.5232
head 11.7089 -10.4155 3.27667
rclavicle -1.90833e-014 -4.37326e-015
rhumerus -32.6359 -0.0566338 -82.5298
rradius 30.3011
rwrist -13.0045
rhand -9.95019 -28.9846
rfingers 7.12502
rthumb 16.0316 -58.3413
lclavicle -1.90833e-014 -4.37326e-015
lhumerus -34.9133 8.866 85.1627
lradius 25.2178
lwrist 8.19119
lhand -20.381 -11.7856
lfingers 7.12502
lthumb 5.97198 18.1102
rfemur -16.7432 -7.0113 15.548
rtibia 26.1475
rfoot -11.5074 -17.6196
rtoes 12.9302
lfemur 4.44189 4.28529 -18.8633
ltibia 29.5268
lfoot -16.4203 8.99002
ltoes -6.83947
1227
root -25.7875 16.7222 1.1655 458.251 -93.6419 624.375
lowerback -1.14287 -1.9616 -5.34177
upperback 3.32155 -2.51564 0.881817
thorax 4.35536 -1.46422 3.77785
lowerneck -11.2057 -16.2302 -18.9438
upperneck 20.2313 -21.8739 10.7767
head 11.7571 -10.5251 3.32427
rclavicle 4.06515e-014 -2.34566e-014
rhumerus -32.1573 0.207138 -82.7153
rradius 30.3432
rwrist -13.3759
rhand -9.8286 -28.9532
rfingers 7.12502
rthumb 16.1487 -58.3004
lclavicle 4.06515e-014 -2.34566e-014
lhumerus -35.0908 8.91317 84.8296
lradius 25.0061
lwrist 7.57403
lhand -19.7748 -11.6093
lfingers 7.12502
lthumb 6.55724 18.2691
rfemur -15.6354 -6.89705 15.9328
rtibia 25.8014
rfoot -11.9093 -17.8342
rtoes 13.8029
lfemur 2.93413 4.98197 -17.964
ltibia 32.3078
lfoot -14.092 8.76745
ltoes -11.3379
1228
root -25.9152 16.717 1.06954 461.29 -93.7277 621.031
lowerback -1.32114 -1.92585 -5.18845
upperback 3.51462 -2.46016 0.809809
thorax 4.64175 -1.44259 3.61
lowerneck -11.0743 -16.3893 -19.0836
upperneck 20.2037 -22.2021 11.1168
head 11.8406 -10.655 3.39532
rclavicle -3.86636e-014 -3.97569e-016
rhumerus -31.551 0.29909 -82.8346
rradius 30.3515
rwrist -13.7832
rhand -9.72675 -28.4573
rfingers 7.12502
rthumb 16.2468 -57.7965
lclavicle -3.86636e-014 -3.97569e-016
lhumerus -34.9976 9.05635 84.4332
lradius 24.702
lwrist 6.73137
lhand -19.1562 -11.817
lfingers 7.12502
lthumb 7.15436 18.0421
rfemur -14.4354 -6.78127 16.138
rtibia 25.277
rfoot -12.3036 -18.0178
rtoes 15.1861
lfemur 2.02268 5.802 -17.1753
ltibia 35.4737
lfoot -12.9369 7.55491
ltoes -10.5954
1229
root -26.0167 16.705 1.00288 472.654 -93.6951 609.663
lowerback -1.14155 -2.10257 -4.54292
upperback 3.31261 -2.73055 0.90499
thorax 4.32569 -1.5435 3.34154
lowerneck -10.7684 -16.4616 -19.2162
upperneck 20.2055 -22.3557 11.1215
head 11.8269 -10.7486 3.40149
rclavicle 2.18663e-015 0
rhumerus -31.4802 0.876007 -82.813
rradius 30.9099
rwrist -14.3123
rhand -9.66826 -28.3698
rfingers 7.12502
rthumb 16.3031 -57.7045
lclavicle 2.18663e-015 0
lhumerus -35.2437 9.56255 84.1124
lradius 24.3993
lwrist 6.08646
lhand -18.9784 -12.2891
lfingers 7.12502
lthumb 7.32596 17.564
rfemur -13.4974 -8.37843 16.5393
rtibia 24.5435
rfoot -12.197 -17.044
rtoes 14.799
lfemur 0.422904 6.27595 -16.3301
ltibia 38.843
lfoot -11.385 6.91874
ltoes -10.6172
1230
root -26.1252 16.6953 0.90352 482.794 -92.6373 599.51
lowerback -1.19216 -2.03531 -3.48255
upperback 3.24256 -2.6902 1.35714
thorax 4.2448 -1.49406 3.21817
lowerneck -10.6304 -16.5459 -19.185
upperneck 20.2779 -22.49 10.9733
head 11.8254 -10.8273 3.32506
rclavicle -2.87244e-014 3.18055e-015
rhumerus -31.175 1.27392 -82.7421
rradius 31.3846
rwrist -14.6892
rhand -9.69744 -28.4459
rfingers 7.12502
rthumb 16.275 -57.7828
lclavicle -2.87244e-014 3.18055e-015
lhumerus -35.4324 10.1217 83.8305
lradius 24.3955
lwrist 5.66903
lhand -19.2089 -12.5688
lfingers 7.12502
lthumb 7.10347 17.292
rfemur -12.7492 -7.27188 18.2346
rtibia 23.9941
rfoot -12.667 -17.9892
rtoes 14.6823
lfemur -1.15009 7.31762 -14.2117
ltibia 42.2573
lfoot -9.69635 6.40354
ltoes -8.35626
1231
root -26.2186 16.6958 0.829519 498.574 -91.8609 583.144
lowerback -0.561213 -1.93796 -2.29345
upperback 3.38653 -2.62934 1.63679
thorax 3.98599 -1.43296 2.8636
lowerneck -10.714 -16.6371 -19.0127
upperneck 20.4178 -22.6024 10.7509
head 11.8583 -10.8811 3.1925
rclavicle 4.41302e-014 -6.36111e-015
rhumerus -30.5101 1.30875 -82.6208
rradius 31.5257
rwrist -15.0598
rhand -9.74866 -28.4323
rfingers 7.12502
rthumb 16.2257 -57.7733
lclavicle 4.41302e-014 -6.36111e-015
lhumerus -35.4098 10.6699 83.5457
lradius 24.4495
lwrist 5.27072
lhand -19.6446 -12.6771
lfingers 7.12502
lthumb 6.68288 17.1974
rfemur -11.2934 -7.18005 19.5529
rtibia 23.1589
rfoot -12.5764 -18.0854
rtoes 14.7377
lfemur -2.44859 8.16881 -12.4061
ltibia 45.7337
lfoot -8.02542 6.4373
ltoes -7.79608
1232
root -26.3118 16.7027 0.775326 488.37 -92.8401 593.239
lowerback -0.497786 -2.01693 -2.89257
upperback 3.412 -2.7076 1.31313
thorax 3.99579 -1.48474 2.86278
lowerneck -10.7244 -16.6998 -18.8681
upperneck 20.4432 -22.7161 10.7101
head 11.8633 -10.9253 3.13397
rclavicle -9.24349e-015 4.37326e-015
rhumerus -29.8714 1.1501 -82.4556
rradius 31.7648
rwrist -15.5379
rhand -9.81009 -28.717
rfingers 7.12502
rthumb 16.1665 -58.0629
lclavicle -9.24349e-015 4.37326e-015
lhumerus -35.1462 11.1736 83.2907
lradius 24.1652
lwrist 5.08045
lhand -20.1929 -12.7065
lfingers 7.12502
lthumb 6.15358 17.1841
rfemur -10.3456 -8.91143 18.4567
rtibia 22.3954
rfoot -12.2909 -16.7089
rtoes 15.3129
lfemur -4.03022 8.47091 -13.2813
ltibia 48.8995
lfoot -7.15798 6.89886
ltoes -8.56712
